<svg width="42" height="42" viewBox="0 0 42 42" fill="none" xmlns="http://www.w3.org/2000/svg">
    <path
        d="M21 10.5C21.9283 10.5 22.8185 10.1313 23.4749 9.47487C24.1313 8.8185 24.5 7.92826 24.5 7C24.5 6.335 24.325 5.7225 23.9925 5.1975L21 0L18.0075 5.1975C17.675 5.7225 17.5 6.335 17.5 7C17.5 8.925 19.075 10.5 21 10.5ZM29.05 27.9825L27.1775 26.11L25.2875 27.9825C23.0125 30.2575 19.0225 30.275 16.73 27.9825L14.8575 26.11L12.95 27.9825C11.8125 29.12 10.29 29.75 8.68 29.75C7.4025 29.75 6.23 29.3475 5.25 28.6825V36.75C5.25 37.7125 6.0375 38.5 7 38.5H35C35.9625 38.5 36.75 37.7125 36.75 36.75V28.6825C35.77 29.3475 34.5975 29.75 33.32 29.75C31.71 29.75 30.1875 29.12 29.05 27.9825ZM31.5 15.75H22.75V12.25H19.25V15.75H10.5C7.595 15.75 5.25 18.095 5.25 21V23.695C5.25 25.585 6.79 27.125 8.68 27.125C9.59 27.125 10.465 26.775 11.095 26.1275L14.84 22.4L18.5675 26.1275C19.8625 27.4225 22.12 27.4225 23.415 26.1275L27.16 22.4L30.8875 26.1275C31.535 26.775 32.3925 27.125 33.3025 27.125C35.1925 27.125 36.7325 25.585 36.7325 23.695V21C36.75 18.095 34.405 15.75 31.5 15.75Z"
        fill="#333333" />
</svg>
<defs>
    <clipPath id="clip0_2_26">
        <rect width="32" height="46" fill="white" />
    </clipPath>
</defs>
</svg>