<svg width="42" height="42" viewBox="0 0 160 160" fill="none" xmlns="http://www.w3.org/2000/svg">
    <path
        d="M85.165 37.75L85.505 37.68C82.05 32.19 75.045 25 62.1 25C52.5 25 43.3 31.6 39.3 41.4C33.95 54.3 38.1 68.95 50.65 81.5C77.2 108 62.25 136.95 50.65 148.55C49.65 149.5 48.4 150 47.1 150C46.1129 150.005 45.1465 149.717 44.3234 149.172C43.5003 148.627 42.8578 147.85 42.4774 146.939C42.097 146.028 41.9958 145.025 42.1868 144.057C42.3778 143.088 42.8523 142.198 43.55 141.5L43.565 141.485C44.85 140.145 69.445 114.445 43.55 88.55C41.9 86.9 40.5 85.25 39.1 83.55V101.15C39.1 110.25 31.75 117.6 22.65 117.6H21.8C20.8 117.6 20 116.8 20 115.8V93.05C20 84.75 26.25 77.9 34.3 76.85C26.5 64.1 24.8 50.15 30 37.55C35.7 23.85 48.3 15 62.1 15C81.17 15 91.27 25.88 95.94 35.745L96.99 35.545C104.083 34.1427 111.443 35.6115 117.454 39.6291C123.466 43.6467 127.638 49.8849 129.055 56.975L135.565 89.575C136.35 93.775 133.655 98.075 129.24 98.91L124.37 99.86L124.3 99.87L124.9 102.95C125.15 104.1 124.4 105.2 123.25 105.45L119.8 106.15C116.783 106.74 113.659 106.44 110.809 105.286C107.959 104.131 105.507 102.173 103.75 99.65C103.079 102.625 101.56 105.342 99.3774 107.472C97.1944 109.602 94.4408 111.053 91.45 111.65L87.95 112.35C86.85 112.6 85.75 111.85 85.55 110.75L84.85 107.525L84.48 107.605H84.47L79.585 108.59C78.5658 108.805 77.514 108.815 76.4907 108.621C75.4674 108.426 74.493 108.03 73.624 107.455C72.7551 106.881 72.0089 106.139 71.4289 105.274C70.8488 104.409 70.4464 103.437 70.245 102.415V102.4L63.745 69.775C62.3405 62.6879 63.8079 55.3332 67.8246 49.3278C71.8414 43.3224 78.0786 39.1579 85.165 37.75V37.75ZM119.245 58.925C118.344 54.4338 115.7 50.4831 111.89 47.9392C108.081 45.3953 103.418 44.466 98.925 45.355H98.9C96.995 45.73 95.25 46.045 93.53 46.355H93.52C91.415 46.735 89.36 47.105 87.14 47.555H87.125C82.6377 48.4439 78.6873 51.0787 76.1425 54.8799C73.5977 58.6812 72.667 63.3376 73.555 67.825L79.635 98.375L82.53 97.795C85.7849 97.1399 88.7812 95.5583 91.1585 93.2404C93.5357 90.9226 95.1927 87.9673 95.93 84.73C96.1469 83.7883 96.6321 82.9296 97.3268 82.2579C98.0215 81.5862 98.896 81.1301 99.8445 80.945C100.793 80.7599 101.775 80.8535 102.671 81.2147C103.567 81.5759 104.34 82.189 104.895 82.98C106.812 85.7339 109.49 87.8693 112.602 89.125C115.713 90.3806 119.124 90.7021 122.415 90.05L122.45 90.04L125.35 89.48L119.25 58.93L119.245 58.925ZM134.95 150H132.45C125.3 150 119.45 144.2 119.5 137.05V118.1C119.5 116.95 120.45 116 121.6 116H124.1C127.535 116 130.828 117.364 133.257 119.793C135.686 122.222 137.05 125.515 137.05 128.95V147.9C137.05 149.05 136.1 150 134.95 150Z"
        fill="#333" />

    <defs>
        <clipPath id="clip0_2_26">
            <rect width="32" height="46" fill="white" />
        </clipPath>
    </defs>
</svg>