<svg width="32" height="32" viewBox="0 0 32 46" fill="none" xmlns="http://www.w3.org/2000/svg">
    <g clip-path="url(#clip0_2_26)">
        <path
            d="M0 2.15625C0 0.96582 0.895833 0 2 0H30C31.1083 0 32 0.96582 32 2.15625C32 3.34668 31.1083 4.3125 30 4.3125H29.3333V6.01773C29.3333 9.64023 27.925 13.0363 25.625 15.6777L18.825 23L25.625 30.3223C27.925 32.8828 29.3333 36.3598 29.3333 39.9805V41.6875H30C31.1083 41.6875 32 42.6488 32 43.8438C32 45.0387 31.1083 46 30 46H2C0.895833 46 0 45.0387 0 43.8438C0 42.6488 0.895833 41.6875 2 41.6875H2.66667V39.9805C2.66667 36.3598 4.00083 32.8828 6.37667 30.3223L13.175 23L6.37667 15.6777C4.00083 13.0363 2.66667 9.64023 2.66667 6.01773V4.3125H2C0.895833 4.3125 0 3.34668 0 2.15625ZM8.315 34.5H23.6833C23.4167 34.1047 23.1167 33.7273 22.7917 33.377L16 26.0457L9.20833 33.377C8.88333 33.7273 8.50833 34.1047 8.315 34.5ZM23.6833 11.5C24.675 9.91875 25.3333 7.99879 25.3333 6.01773V4.3125H6.66667V6.01773C6.66667 7.99879 7.25 9.91875 8.315 11.5H23.6833Z"
            fill="#333333" />
    </g>
    <defs>
        <clipPath id="clip0_2_26">
            <rect width="32" height="46" fill="white" />
        </clipPath>
    </defs>
</svg>